<svg xmlns="http://www.w3.org/2000/svg" width="57.475" height="57.5" viewBox="0 0 57.475 57.5">
  <path id="ic_shopping_cart_24px" d="M18.242,48a5.75,5.75,0,1,0,5.747,5.75A5.741,5.741,0,0,0,18.242,48ZM1,2V7.75H6.747L17.093,29.571l-3.88,7.044a5.561,5.561,0,0,0-.718,2.76,5.766,5.766,0,0,0,5.747,5.75H52.727v-5.75H19.449a.712.712,0,0,1-.718-.719l.086-.345L21.4,33.625H42.813a5.72,5.72,0,0,0,5.029-2.961L58.13,12.005a2.81,2.81,0,0,0,.345-1.38A2.883,2.883,0,0,0,55.6,7.75H13.1L10.4,2H1ZM46.98,48a5.75,5.75,0,1,0,5.747,5.75A5.741,5.741,0,0,0,46.98,48Z" transform="translate(-1 -2)" fill="#9f9892"/>
</svg>
