<svg id="Layer_1" data-name="Layer 1" xmlns="http://www.w3.org/2000/svg" viewBox="0 0 389.62 424.83"><defs><style>.cls-1{fill:#fff;stroke:#9f9892;stroke-miterlimit:10;stroke-width:6px;}</style></defs><title>Artboard 1</title><path class="cls-1" d="M331.4,335.22l-29.14-33.31-74.94-85.05s73.15,1.78,78.51,0,5.35-.6,13.68-4.76,7.13-14.28,7.13-14.28,1.19-134.42,0-151.67S313,30.69,313,30.69H87.54c-12.49,0-14.67,16.65-14.67,16.65l1.59,197.47s-3.57,96.36,0,113S87.54,372.1,87.54,372.1l112.41.59s110,4.16,121.34,0,11.9-10.71,13.09-19.63S331.4,335.22,331.4,335.22ZM112.46,324.69v-246h174v88H170s-8.91,1.19-14.26,15.44,1.78,23.17,1.78,23.17l14.85,19.6L233,292.62l27.32,32.07Z"/></svg>
